<svg width="52" height="52" viewBox="0 0 52 52" fill="none" xmlns="http://www.w3.org/2000/svg">
<path fill-rule="evenodd" clip-rule="evenodd" d="M39.8732 12.2049C38.0713 10.3911 35.9274 8.95298 33.5657 7.97372C31.204 6.99446 28.6715 6.49356 26.1148 6.50006C15.3942 6.50006 6.66683 15.2252 6.6625 25.9502C6.6625 29.3779 7.55733 32.7232 9.25817 35.6742L6.5 45.7514L16.8112 43.0452C19.6634 44.5979 22.8588 45.412 26.1062 45.4134H26.1148C36.8333 45.4134 45.5607 36.6882 45.565 25.9632C45.5724 23.4076 45.0731 20.8759 44.0962 18.5144C43.1192 16.1528 41.6839 14.0084 39.8732 12.2049ZM26.1148 42.1309H26.1083C23.2126 42.1312 20.3702 41.3521 17.8793 39.8754L17.29 39.5244L11.1713 41.1299L12.8028 35.1651L12.4193 34.5541C10.8004 31.9766 9.94334 28.9939 9.94717 25.9502C9.9515 17.0366 17.2033 9.78473 26.1213 9.78473C28.2452 9.78001 30.3489 10.1966 32.3107 11.0103C34.2726 11.824 36.0535 13.0188 37.5505 14.5254C39.0555 16.0248 40.2484 17.8077 41.0603 19.7709C41.8721 21.7341 42.2868 23.8388 42.2803 25.9632C42.276 34.8769 35.0242 42.1309 26.1148 42.1309ZM34.983 30.0214C34.4955 29.7766 32.1078 28.6022 31.6615 28.4397C31.2173 28.2772 30.8945 28.1971 30.5695 28.6824C30.2445 29.1677 29.3128 30.2619 29.029 30.5869C28.7452 30.9119 28.4613 30.9509 27.976 30.7082C27.4907 30.4656 25.9242 29.9521 24.0673 28.2967C22.6222 27.0076 21.6472 25.4172 21.3633 24.9297C21.0795 24.4422 21.333 24.1801 21.5778 23.9374C21.7967 23.7207 22.0632 23.3697 22.3058 23.0859C22.5485 22.8021 22.6287 22.6006 22.7912 22.2756C22.9537 21.9506 22.8735 21.6667 22.75 21.4241C22.6287 21.1792 21.6558 18.7872 21.2507 17.8144C20.8585 16.8719 20.4577 16.9976 20.1587 16.9846C19.849 16.9719 19.5391 16.9661 19.2292 16.9672C18.9827 16.9735 18.7402 17.0306 18.5169 17.135C18.2936 17.2394 18.0942 17.3888 17.9313 17.5739C17.485 18.0614 16.2305 19.2357 16.2305 21.6277C16.2305 24.0197 17.9725 26.3316 18.2152 26.6566C18.4578 26.9816 21.6428 31.8891 26.5178 33.9951C27.6792 34.4956 28.5848 34.7946 29.289 35.0199C30.4525 35.3904 31.512 35.3362 32.3505 35.2127C33.2843 35.0741 35.2257 34.0384 35.6308 32.9031C36.036 31.7677 36.036 30.7949 35.9147 30.5912C35.7933 30.3876 35.4662 30.2641 34.983 30.0214Z" fill="black"/>
</svg>
