<svg width="334" height="96" viewBox="0 0 334 96" fill="none" xmlns="http://www.w3.org/2000/svg">
<path d="M99.452 44.416C96.188 44.416 93.416 43.984 91.136 43.12C88.88 42.256 87.164 41.008 85.988 39.376C84.812 37.72 84.224 35.704 84.224 33.328C84.224 30.952 84.812 28.948 85.988 27.316C87.164 25.66 88.88 24.4 91.136 23.536C93.416 22.672 96.188 22.24 99.452 22.24C99.5 22.24 99.632 22.24 99.848 22.24C100.088 22.24 100.316 22.24 100.532 22.24C100.772 22.24 100.904 22.24 100.928 22.24C104.168 22.24 106.904 22.672 109.136 23.536C111.392 24.4 113.096 25.66 114.248 27.316C115.4 28.972 115.976 30.976 115.976 33.328C115.976 35.656 115.4 37.66 114.248 39.34C113.12 40.996 111.452 42.256 109.244 43.12C107.06 43.984 104.384 44.416 101.216 44.416C101.144 44.416 100.976 44.416 100.712 44.416C100.448 44.416 100.184 44.416 99.92 44.416C99.68 44.416 99.524 44.416 99.452 44.416ZM99.992 39.916C100.064 39.916 100.16 39.916 100.28 39.916C100.4 39.916 100.484 39.916 100.532 39.916C102.74 39.916 104.564 39.676 106.004 39.196C107.468 38.692 108.56 37.96 109.28 37C110 36.016 110.36 34.78 110.36 33.292C110.36 31.804 109.988 30.58 109.244 29.62C108.5 28.66 107.408 27.952 105.968 27.496C104.552 27.016 102.764 26.776 100.604 26.776C100.556 26.776 100.46 26.776 100.316 26.776C100.196 26.776 100.088 26.776 99.992 26.776C97.712 26.776 95.828 27.004 94.34 27.46C92.852 27.916 91.736 28.636 90.992 29.62C90.248 30.58 89.876 31.816 89.876 33.328C89.876 34.84 90.272 36.088 91.064 37.072C91.856 38.032 92.996 38.752 94.484 39.232C95.996 39.688 97.832 39.916 99.992 39.916ZM97.436 47.116V19.72H102.8V47.116H97.436ZM119.907 46V26.632H125.487V38.152L134.919 26.632H140.067V46H134.487V34.48L125.091 46H119.907ZM145.466 46V26.632H151.046V34.192H159.47V26.632H165.086V46H159.47V38.764H151.046V46H145.466ZM182.054 46V42.22L181.694 41.392V34.624C181.694 33.424 181.322 32.488 180.578 31.816C179.858 31.144 178.742 30.808 177.23 30.808C176.198 30.808 175.178 30.976 174.17 31.312C173.186 31.624 172.346 32.056 171.65 32.608L169.634 28.684C170.69 27.94 171.962 27.364 173.45 26.956C174.938 26.548 176.45 26.344 177.986 26.344C180.938 26.344 183.23 27.04 184.862 28.432C186.494 29.824 187.31 31.996 187.31 34.948V46H182.054ZM176.15 46.288C174.638 46.288 173.342 46.036 172.262 45.532C171.182 45.004 170.354 44.296 169.778 43.408C169.202 42.52 168.914 41.524 168.914 40.42C168.914 39.268 169.19 38.26 169.742 37.396C170.318 36.532 171.218 35.86 172.442 35.38C173.666 34.876 175.262 34.624 177.23 34.624H182.378V37.9H177.842C176.522 37.9 175.61 38.116 175.106 38.548C174.626 38.98 174.386 39.52 174.386 40.168C174.386 40.888 174.662 41.464 175.214 41.896C175.79 42.304 176.57 42.508 177.554 42.508C178.49 42.508 179.33 42.292 180.074 41.86C180.818 41.404 181.358 40.744 181.694 39.88L182.558 42.472C182.15 43.72 181.406 44.668 180.326 45.316C179.246 45.964 177.854 46.288 176.15 46.288ZM192.188 46V26.632H197.768V34.192H206.192V26.632H211.808V46H206.192V38.764H197.768V46H192.188ZM226.4 46.288C224.312 46.288 222.452 45.868 220.82 45.028C219.188 44.164 217.904 42.976 216.968 41.464C216.056 39.952 215.6 38.236 215.6 36.316C215.6 34.372 216.056 32.656 216.968 31.168C217.904 29.656 219.188 28.48 220.82 27.64C222.452 26.776 224.312 26.344 226.4 26.344C228.44 26.344 230.216 26.776 231.728 27.64C233.24 28.48 234.356 29.692 235.076 31.276L230.72 33.616C230.216 32.704 229.58 32.032 228.812 31.6C228.068 31.168 227.252 30.952 226.364 30.952C225.404 30.952 224.54 31.168 223.772 31.6C223.004 32.032 222.392 32.644 221.936 33.436C221.504 34.228 221.288 35.188 221.288 36.316C221.288 37.444 221.504 38.404 221.936 39.196C222.392 39.988 223.004 40.6 223.772 41.032C224.54 41.464 225.404 41.68 226.364 41.68C227.252 41.68 228.068 41.476 228.812 41.068C229.58 40.636 230.216 39.952 230.72 39.016L235.076 41.392C234.356 42.952 233.24 44.164 231.728 45.028C230.216 45.868 228.44 46.288 226.4 46.288ZM247.315 46.288C245.251 46.288 243.415 45.856 241.807 44.992C240.223 44.128 238.963 42.952 238.027 41.464C237.115 39.952 236.659 38.236 236.659 36.316C236.659 34.372 237.115 32.656 238.027 31.168C238.963 29.656 240.223 28.48 241.807 27.64C243.415 26.776 245.251 26.344 247.315 26.344C249.355 26.344 251.179 26.776 252.787 27.64C254.395 28.48 255.655 29.644 256.567 31.132C257.479 32.62 257.935 34.348 257.935 36.316C257.935 38.236 257.479 39.952 256.567 41.464C255.655 42.952 254.395 44.128 252.787 44.992C251.179 45.856 249.355 46.288 247.315 46.288ZM247.315 41.68C248.251 41.68 249.091 41.464 249.835 41.032C250.579 40.6 251.167 39.988 251.599 39.196C252.031 38.38 252.247 37.42 252.247 36.316C252.247 35.188 252.031 34.228 251.599 33.436C251.167 32.644 250.579 32.032 249.835 31.6C249.091 31.168 248.251 30.952 247.315 30.952C246.379 30.952 245.539 31.168 244.795 31.6C244.051 32.032 243.451 32.644 242.995 33.436C242.563 34.228 242.347 35.188 242.347 36.316C242.347 37.42 242.563 38.38 242.995 39.196C243.451 39.988 244.051 40.6 244.795 41.032C245.539 41.464 246.379 41.68 247.315 41.68ZM261.798 46V26.632H271.698C274.122 26.632 276.018 27.076 277.386 27.964C278.754 28.828 279.438 30.052 279.438 31.636C279.438 33.22 278.79 34.468 277.494 35.38C276.222 36.268 274.53 36.712 272.418 36.712L272.994 35.416C275.346 35.416 277.098 35.848 278.25 36.712C279.426 37.576 280.014 38.836 280.014 40.492C280.014 42.196 279.366 43.54 278.07 44.524C276.774 45.508 274.794 46 272.13 46H261.798ZM266.946 42.184H271.662C272.694 42.184 273.462 42.016 273.966 41.68C274.494 41.32 274.758 40.78 274.758 40.06C274.758 39.316 274.518 38.776 274.038 38.44C273.558 38.08 272.802 37.9 271.77 37.9H266.946V42.184ZM266.946 34.588H271.194C272.178 34.588 272.91 34.408 273.39 34.048C273.894 33.688 274.146 33.172 274.146 32.5C274.146 31.804 273.894 31.288 273.39 30.952C272.91 30.616 272.178 30.448 271.194 30.448H266.946V34.588ZM293.264 46.288C291.2 46.288 289.364 45.856 287.756 44.992C286.172 44.128 284.912 42.952 283.976 41.464C283.064 39.952 282.608 38.236 282.608 36.316C282.608 34.372 283.064 32.656 283.976 31.168C284.912 29.656 286.172 28.48 287.756 27.64C289.364 26.776 291.2 26.344 293.264 26.344C295.304 26.344 297.128 26.776 298.736 27.64C300.344 28.48 301.604 29.644 302.516 31.132C303.428 32.62 303.884 34.348 303.884 36.316C303.884 38.236 303.428 39.952 302.516 41.464C301.604 42.952 300.344 44.128 298.736 44.992C297.128 45.856 295.304 46.288 293.264 46.288ZM293.264 41.68C294.2 41.68 295.04 41.464 295.784 41.032C296.528 40.6 297.116 39.988 297.548 39.196C297.98 38.38 298.196 37.42 298.196 36.316C298.196 35.188 297.98 34.228 297.548 33.436C297.116 32.644 296.528 32.032 295.784 31.6C295.04 31.168 294.2 30.952 293.264 30.952C292.328 30.952 291.488 31.168 290.744 31.6C290 32.032 289.4 32.644 288.944 33.436C288.512 34.228 288.296 35.188 288.296 36.316C288.296 37.42 288.512 38.38 288.944 39.196C289.4 39.988 290 40.6 290.744 41.032C291.488 41.464 292.328 41.68 293.264 41.68ZM317.215 46.288C315.007 46.288 313.063 45.856 311.383 44.992C309.727 44.128 308.443 42.952 307.531 41.464C306.619 39.952 306.163 38.236 306.163 36.316C306.163 34.372 306.607 32.656 307.495 31.168C308.407 29.656 309.643 28.48 311.203 27.64C312.763 26.776 314.527 26.344 316.495 26.344C318.391 26.344 320.095 26.752 321.607 27.568C323.143 28.36 324.355 29.512 325.243 31.024C326.131 32.512 326.575 34.3 326.575 36.388C326.575 36.604 326.563 36.856 326.539 37.144C326.515 37.408 326.491 37.66 326.467 37.9H310.735V34.624H323.515L321.355 35.596C321.355 34.588 321.151 33.712 320.743 32.968C320.335 32.224 319.771 31.648 319.051 31.24C318.331 30.808 317.491 30.592 316.531 30.592C315.571 30.592 314.719 30.808 313.975 31.24C313.255 31.648 312.691 32.236 312.283 33.004C311.875 33.748 311.671 34.636 311.671 35.668V36.532C311.671 37.588 311.899 38.524 312.355 39.34C312.835 40.132 313.495 40.744 314.335 41.176C315.199 41.584 316.207 41.788 317.359 41.788C318.391 41.788 319.291 41.632 320.059 41.32C320.851 41.008 321.571 40.54 322.219 39.916L325.207 43.156C324.319 44.164 323.203 44.944 321.859 45.496C320.515 46.024 318.967 46.288 317.215 46.288ZM105.111 71.288C103.023 71.288 101.163 70.868 99.5313 70.028C97.8993 69.164 96.6153 67.976 95.6793 66.464C94.7673 64.952 94.3113 63.236 94.3113 61.316C94.3113 59.372 94.7673 57.656 95.6793 56.168C96.6153 54.656 97.8993 53.48 99.5313 52.64C101.163 51.776 103.023 51.344 105.111 51.344C107.151 51.344 108.927 51.776 110.439 52.64C111.951 53.48 113.067 54.692 113.787 56.276L109.431 58.616C108.927 57.704 108.291 57.032 107.523 56.6C106.779 56.168 105.963 55.952 105.075 55.952C104.115 55.952 103.251 56.168 102.483 56.6C101.715 57.032 101.103 57.644 100.647 58.436C100.215 59.228 99.9993 60.188 99.9993 61.316C99.9993 62.444 100.215 63.404 100.647 64.196C101.103 64.988 101.715 65.6 102.483 66.032C103.251 66.464 104.115 66.68 105.075 66.68C105.963 66.68 106.779 66.476 107.523 66.068C108.291 65.636 108.927 64.952 109.431 64.016L113.787 66.392C113.067 67.952 111.951 69.164 110.439 70.028C108.927 70.868 107.151 71.288 105.111 71.288ZM117.2 71V51.632H136.46V71H130.844V54.98L132.104 56.24H121.52L122.78 54.98V71H117.2ZM153.437 71V67.22L153.077 66.392V59.624C153.077 58.424 152.705 57.488 151.961 56.816C151.241 56.144 150.125 55.808 148.613 55.808C147.581 55.808 146.561 55.976 145.553 56.312C144.569 56.624 143.729 57.056 143.033 57.608L141.017 53.684C142.073 52.94 143.345 52.364 144.833 51.956C146.321 51.548 147.833 51.344 149.369 51.344C152.321 51.344 154.613 52.04 156.245 53.432C157.877 54.824 158.693 56.996 158.693 59.948V71H153.437ZM147.533 71.288C146.021 71.288 144.725 71.036 143.645 70.532C142.565 70.004 141.737 69.296 141.161 68.408C140.585 67.52 140.297 66.524 140.297 65.42C140.297 64.268 140.573 63.26 141.125 62.396C141.701 61.532 142.601 60.86 143.825 60.38C145.049 59.876 146.645 59.624 148.613 59.624H153.761V62.9H149.225C147.905 62.9 146.993 63.116 146.489 63.548C146.009 63.98 145.769 64.52 145.769 65.168C145.769 65.888 146.045 66.464 146.597 66.896C147.173 67.304 147.953 67.508 148.937 67.508C149.873 67.508 150.713 67.292 151.457 66.86C152.201 66.404 152.741 65.744 153.077 64.88L153.941 67.472C153.533 68.72 152.789 69.668 151.709 70.316C150.629 70.964 149.237 71.288 147.533 71.288ZM172.787 71.288C170.699 71.288 168.839 70.868 167.207 70.028C165.575 69.164 164.291 67.976 163.355 66.464C162.443 64.952 161.987 63.236 161.987 61.316C161.987 59.372 162.443 57.656 163.355 56.168C164.291 54.656 165.575 53.48 167.207 52.64C168.839 51.776 170.699 51.344 172.787 51.344C174.827 51.344 176.603 51.776 178.115 52.64C179.627 53.48 180.743 54.692 181.463 56.276L177.107 58.616C176.603 57.704 175.967 57.032 175.199 56.6C174.455 56.168 173.639 55.952 172.751 55.952C171.791 55.952 170.927 56.168 170.159 56.6C169.391 57.032 168.779 57.644 168.323 58.436C167.891 59.228 167.675 60.188 167.675 61.316C167.675 62.444 167.891 63.404 168.323 64.196C168.779 64.988 169.391 65.6 170.159 66.032C170.927 66.464 171.791 66.68 172.751 66.68C173.639 66.68 174.455 66.476 175.199 66.068C175.967 65.636 176.603 64.952 177.107 64.016L181.463 66.392C180.743 67.952 179.627 69.164 178.115 70.028C176.603 70.868 174.827 71.288 172.787 71.288ZM194.098 71.288C191.89 71.288 189.946 70.856 188.266 69.992C186.61 69.128 185.326 67.952 184.414 66.464C183.502 64.952 183.046 63.236 183.046 61.316C183.046 59.372 183.49 57.656 184.378 56.168C185.29 54.656 186.526 53.48 188.086 52.64C189.646 51.776 191.41 51.344 193.378 51.344C195.274 51.344 196.978 51.752 198.49 52.568C200.026 53.36 201.238 54.512 202.126 56.024C203.014 57.512 203.458 59.3 203.458 61.388C203.458 61.604 203.446 61.856 203.422 62.144C203.398 62.408 203.374 62.66 203.35 62.9H187.618V59.624H200.398L198.238 60.596C198.238 59.588 198.034 58.712 197.626 57.968C197.218 57.224 196.654 56.648 195.934 56.24C195.214 55.808 194.374 55.592 193.414 55.592C192.454 55.592 191.602 55.808 190.858 56.24C190.138 56.648 189.574 57.236 189.166 58.004C188.758 58.748 188.554 59.636 188.554 60.668V61.532C188.554 62.588 188.782 63.524 189.238 64.34C189.718 65.132 190.378 65.744 191.218 66.176C192.082 66.584 193.09 66.788 194.242 66.788C195.274 66.788 196.174 66.632 196.942 66.32C197.734 66.008 198.454 65.54 199.102 64.916L202.09 68.156C201.202 69.164 200.086 69.944 198.742 70.496C197.398 71.024 195.85 71.288 194.098 71.288ZM207.763 71V51.632H213.343V59.192H221.767V51.632H227.383V71H221.767V63.764H213.343V71H207.763ZM232.759 71V51.632H238.339V63.152L247.771 51.632H252.919V71H247.339V59.48L237.943 71H232.759ZM267.785 71.288C265.577 71.288 263.633 70.856 261.953 69.992C260.297 69.128 259.013 67.952 258.101 66.464C257.189 64.952 256.733 63.236 256.733 61.316C256.733 59.372 257.177 57.656 258.065 56.168C258.977 54.656 260.213 53.48 261.773 52.64C263.333 51.776 265.097 51.344 267.065 51.344C268.961 51.344 270.665 51.752 272.177 52.568C273.713 53.36 274.925 54.512 275.813 56.024C276.701 57.512 277.145 59.3 277.145 61.388C277.145 61.604 277.133 61.856 277.109 62.144C277.085 62.408 277.061 62.66 277.037 62.9H261.305V59.624H274.085L271.925 60.596C271.925 59.588 271.721 58.712 271.313 57.968C270.905 57.224 270.341 56.648 269.621 56.24C268.901 55.808 268.061 55.592 267.101 55.592C266.141 55.592 265.289 55.808 264.545 56.24C263.825 56.648 263.261 57.236 262.853 58.004C262.445 58.748 262.241 59.636 262.241 60.668V61.532C262.241 62.588 262.469 63.524 262.925 64.34C263.405 65.132 264.065 65.744 264.905 66.176C265.769 66.584 266.777 66.788 267.929 66.788C268.961 66.788 269.861 66.632 270.629 66.32C271.421 66.008 272.141 65.54 272.789 64.916L275.777 68.156C274.889 69.164 273.773 69.944 272.429 70.496C271.085 71.024 269.537 71.288 267.785 71.288Z" fill="#232308"/>
<path d="M6.75 27V40.5034H10.125V60.75H6.75V70.875H60.75L70.875 70.8784L74.25 70.875V60.75H70.875V40.5034H74.25V27L40.5 6.75L6.75 27ZM20.25 60.75V40.5034H27V60.75H20.25ZM37.125 60.75V40.5034H43.875V60.75H37.125ZM60.75 60.75H54V40.5034H60.75V60.75ZM47.25 27C47.2498 27.8866 47.0749 28.7646 46.7354 29.5836C46.3959 30.4027 45.8984 31.1469 45.2713 31.7737C44.6442 32.4005 43.8997 32.8976 43.0805 33.2367C42.2613 33.5758 41.3833 33.7502 40.4966 33.75C39.61 33.7498 38.7321 33.5749 37.913 33.2354C37.0939 32.8959 36.3498 32.3984 35.723 31.7713C35.0962 31.1442 34.599 30.3997 34.2599 29.5805C33.9208 28.7613 33.7464 27.8833 33.7466 26.9966C33.7471 25.206 34.4588 23.4888 35.7253 22.223C36.9918 20.9571 38.7093 20.2462 40.5 20.2466C42.2907 20.2471 44.0078 20.9588 45.2737 22.2253C46.5395 23.4918 47.2504 25.2093 47.25 27Z" fill="#232308"/>
</svg>
